# xmcd
#
# Track frame offsets:
#	150
#	19344
#	37504
#	56445
#	73312
#	91304
#	114908
#	131703
#	151030
#	170189
#	186390
#	206857
#	220650
#
# Disc length: 3168 seconds
#
# Revision: 0
# Processed by: cddbd v1.5.2PL0 Copyright (c) Steve Scherf et al.
# Submitted via: SynApp - FreeCDDB Version: 2.4
#
DISCID=b60c5e0d
DTITLE=Diverse - Sweet, Soft and Sexy
DYEAR=2007
DGENRE=Pop/Funk
TTITLE0=John Farnham - Touch of Paradise
TTITLE1=Lionel Richie - Say you, Say me
TTITLE2=Sade - Smooth Operator
TTITLE3=Four Tops - Hot Nights
TTITLE4=Johnny Nash - Rock me Baby
TTITLE5=Tina Turner - Undercover Agent for the Blues
TTITLE6=Nina Simone - My Baby just cares for me
TTITLE7=Milli Vanilli - Girl I´m gonna miss you
TTITLE8=Odyssey - Wehen you love somebody
TTITLE9=Commodores - Three Times a Lady
TTITLE10=Terence Trent DÀrby - Sign your Name
TTITLE11=Stevie Wonder - Yester-Me, Yester-You, Yesterday
TTITLE12=Wilson Pickett - Make love to you
EXTD=
EXTT0=
EXTT1=
EXTT2=
EXTT3=
EXTT4=
EXTT5=
EXTT6=
EXTT7=
EXTT8=
EXTT9=
EXTT10=
EXTT11=
EXTT12=
PLAYORDER=
